<?xml version="1.0" standalone="no"?>
<!DOCTYPE svg PUBLIC "-//W3C//DTD SVG 20010904//EN"
 "http://www.w3.org/TR/2001/REC-SVG-20010904/DTD/svg10.dtd">
<svg version="1.0" xmlns="http://www.w3.org/2000/svg"
 width="512.000000pt" height="512.000000pt" viewBox="0 0 512.000000 512.000000"
 preserveAspectRatio="xMidYMid meet">
<metadata>
Created by potrace 1.14, written by Peter Selinger 2001-2017
</metadata>
<g transform="translate(0.000000,512.000000) scale(0.100000,-0.100000)"
fill="#000000" stroke="none">
<path d="M1713 5060 c-3 -11 -9 -20 -14 -20 -5 0 -6 -6 -3 -14 6 -15 -22 -30
-38 -19 -7 4 -8 1 -4 -6 5 -7 14 -10 22 -7 15 6 9 -14 -24 -79 -12 -22 -26
-53 -31 -68 -7 -17 -15 -25 -23 -21 -6 4 -8 3 -4 -4 3 -6 -3 -29 -15 -52 -16
-30 -26 -39 -38 -35 -12 5 -13 3 -4 -5 8 -9 7 -17 -5 -31 -8 -10 -19 -16 -24
-13 -4 3 -5 -2 -2 -10 6 -17 -39 -79 -50 -69 -3 4 -6 0 -6 -8 0 -16 -49 -61
-60 -54 -4 3 -7 -3 -6 -12 0 -9 -5 -18 -12 -20 -8 -3 -10 1 -5 14 3 10 3 15
-1 11 -4 -3 -9 -14 -11 -25 -1 -10 -8 -17 -14 -15 -6 1 -11 -2 -11 -8 0 -5 -7
-10 -15 -10 -8 0 -15 -5 -15 -11 0 -5 -5 -7 -10 -4 -6 4 -8 10 -6 14 3 4 -1 8
-9 8 -11 0 -12 -4 -4 -13 7 -9 4 -14 -13 -20 -13 -4 -26 -7 -30 -6 -5 1 -8 -2
-8 -8 0 -5 -5 -10 -11 -10 -5 0 -8 4 -5 8 3 5 -1 9 -8 9 -8 0 -12 -6 -10 -12
3 -6 -1 -12 -8 -12 -7 0 -23 -3 -35 -7 -19 -6 -22 -4 -18 11 3 10 1 9 -6 -4
-14 -27 -31 -31 -23 -5 5 16 5 16 -6 -1 -6 -9 -16 -15 -21 -12 -5 4 -6 11 -3
17 4 7 2 8 -5 4 -6 -4 -9 -12 -6 -17 4 -5 1 -9 -4 -9 -6 0 -14 0 -18 0 -5 0
-8 4 -8 9 0 5 -3 13 -7 17 -4 3 -6 -3 -3 -15 2 -11 -1 -22 -8 -22 -7 -1 -21
-3 -32 -4 -70 -10 -208 -14 -195 -5 9 6 10 10 3 10 -6 0 -15 -5 -18 -10 -4 -6
-11 -8 -16 -4 -5 3 -7 9 -4 14 3 5 1 11 -4 15 -6 3 -8 -3 -6 -14 3 -17 -3 -19
-58 -20 -34 0 -67 5 -76 12 -12 9 -13 9 -7 0 4 -8 2 -13 -8 -13 -8 0 -14 -8
-13 -19 0 -11 4 -18 7 -16 9 5 100 -92 93 -99 -4 -3 0 -6 9 -6 8 0 25 -11 38
-25 13 -14 20 -25 17 -25 -4 0 6 -14 23 -31 16 -18 30 -37 30 -43 0 -6 -5 -4
-11 4 -9 13 -10 13 -6 0 2 -8 10 -14 17 -12 13 3 41 -29 34 -39 -2 -4 3 -9 11
-13 8 -3 15 -12 15 -21 0 -8 5 -15 10 -15 6 0 20 -21 33 -47 12 -27 25 -50 30
-51 4 -2 5 -8 1 -13 -3 -5 -1 -9 5 -9 6 0 7 -7 4 -17 -4 -9 -2 -14 3 -10 6 3
15 -7 21 -24 8 -21 8 -29 0 -29 -6 0 -2 -7 9 -15 14 -11 16 -15 4 -15 -12 0
-11 -3 3 -11 9 -6 14 -15 11 -21 -4 -6 -1 -13 5 -17 10 -7 19 -58 26 -153 2
-24 -1 -38 -9 -38 -6 0 -4 -4 4 -10 8 -5 11 -12 7 -16 -3 -4 -15 -1 -24 7 -17
13 -17 12 0 -7 20 -24 19 -46 -9 -164 -3 -14 -6 -31 -6 -37 -1 -7 -5 -13 -10
-13 -5 0 -6 -5 -2 -12 4 -6 -1 -17 -11 -25 -11 -7 -13 -13 -6 -13 7 0 9 -5 4
-12 -4 -7 -9 -20 -10 -29 -1 -8 -9 -29 -18 -45 -8 -16 -15 -34 -15 -41 0 -7
-8 -17 -17 -22 -10 -6 -13 -11 -6 -11 7 0 2 -18 -13 -47 -13 -27 -24 -52 -24
-57 0 -5 -8 -15 -17 -23 -10 -8 -12 -12 -6 -8 9 4 11 1 7 -9 -3 -9 -11 -16
-17 -16 -6 0 -7 -3 -4 -6 3 -4 1 -16 -5 -28 -7 -11 -11 -25 -10 -30 2 -5 -7
-6 -20 -3 -20 5 -21 4 -7 -6 13 -10 14 -17 4 -41 -9 -21 -14 -25 -19 -15 -3 8
-4 4 -2 -8 2 -12 -3 -31 -11 -42 -8 -12 -11 -21 -6 -21 4 0 0 -5 -9 -11 -10
-5 -18 -15 -18 -22 0 -7 4 -6 10 3 6 10 10 11 10 3 0 -7 -9 -22 -20 -33 -11
-11 -16 -20 -11 -20 4 0 3 -16 -3 -35 -9 -29 -15 -35 -31 -31 -19 5 -19 4 -2
-9 10 -7 18 -16 17 -19 -1 -3 -6 -20 -11 -38 -6 -18 -12 -50 -14 -72 -2 -21
-8 -43 -14 -49 -6 -6 -11 -16 -11 -21 0 -6 4 -5 9 3 6 9 9 -2 8 -33 0 -38 -4
-46 -16 -41 -12 4 -12 2 2 -9 20 -15 23 -31 5 -20 -10 6 -10 4 -1 -7 18 -19
16 -32 -4 -25 -17 6 -17 5 -1 -8 18 -13 26 -32 10 -22 -5 3 -9 -1 -9 -9 0 -8
4 -12 8 -9 4 2 7 -8 6 -23 -1 -16 -8 -28 -14 -28 -6 0 -15 -3 -19 -7 -3 -4 2
-6 13 -4 17 4 20 -1 20 -35 0 -25 -4 -36 -11 -32 -6 3 -8 3 -4 -2 4 -4 2 -15
-5 -24 -10 -14 -10 -14 5 -3 19 15 28 5 27 -29 -1 -41 7 -95 16 -109 5 -9 4
-15 -4 -18 -9 -3 -8 -7 2 -16 20 -15 33 -70 15 -61 -7 4 -5 0 5 -8 9 -8 17
-21 17 -30 0 -9 5 -19 11 -22 6 -4 8 -13 5 -21 -3 -8 -2 -14 3 -14 4 0 13 -12
19 -26 10 -20 10 -24 0 -18 -10 6 -9 3 0 -9 8 -9 10 -22 6 -29 -4 -7 -4 -10 1
-6 4 4 14 3 22 -3 10 -9 11 -15 2 -26 -9 -10 -9 -12 2 -8 9 3 23 -11 39 -42
13 -27 29 -51 35 -55 5 -4 7 -8 3 -8 -4 0 6 -15 23 -32 16 -18 27 -39 24 -46
-3 -7 -1 -10 4 -7 12 7 42 -35 34 -48 -3 -6 -1 -7 4 -4 12 7 103 -94 103 -114
0 -7 3 -10 6 -6 8 8 28 -12 37 -37 4 -10 10 -16 14 -13 3 4 12 2 20 -5 11 -9
11 -14 -4 -32 -17 -20 -17 -20 0 -7 16 12 21 11 50 -15 17 -16 34 -30 37 -32
3 -2 -4 -11 -15 -19 -14 -11 -15 -14 -3 -10 9 3 24 -1 35 -9 10 -9 12 -12 4
-8 -10 5 -12 3 -7 -5 5 -7 14 -10 21 -7 9 3 12 -3 11 -18 -2 -12 1 -31 5 -41
7 -20 8 -20 9 0 2 11 2 27 1 35 -1 13 0 13 8 -1 11 -17 10 -37 -2 -56 -5 -8
-4 -13 2 -13 6 0 12 5 12 10 1 6 2 14 3 19 0 5 5 13 9 18 5 4 7 3 5 -2 -2 -6
7 -21 19 -35 26 -27 30 -42 8 -34 -8 4 -13 10 -10 14 3 4 -3 14 -13 21 -15 13
-16 12 -3 -4 7 -9 10 -17 5 -17 -5 0 -1 -7 10 -15 14 -11 24 -12 40 -3 21 11
21 10 3 -10 -13 -14 -15 -22 -7 -27 6 -4 14 -4 17 -1 4 3 1 6 -6 6 -7 0 -9 5
-6 10 11 18 20 11 38 -31 10 -23 21 -39 24 -35 3 3 -2 17 -11 31 -9 14 -12 25
-7 25 5 0 13 -9 16 -20 4 -11 11 -18 16 -15 14 9 11 -19 -3 -34 -10 -10 -10
-12 -1 -7 7 4 23 -4 35 -16 13 -13 27 -23 31 -23 4 0 12 -7 17 -15 5 -8 10
-10 10 -4 0 7 7 15 16 18 8 3 12 2 9 -3 -3 -6 3 -14 12 -20 10 -6 14 -11 8
-11 -5 0 2 -8 15 -17 14 -10 28 -17 33 -15 4 1 7 -3 7 -8 0 -6 4 -10 10 -10 5
0 7 8 4 18 -5 14 -4 14 4 2 8 -10 7 -18 0 -28 -6 -7 -7 -12 -2 -11 21 4 26 -2
13 -18 -13 -16 -12 -17 3 -5 13 10 17 10 20 0 3 -8 6 -6 11 5 3 9 1 19 -5 23
-7 5 -8 2 -3 -7 6 -11 5 -12 -5 -2 -19 17 -4 29 15 13 9 -7 13 -21 10 -31 -4
-13 -1 -19 9 -19 9 0 16 -5 16 -12 0 -6 3 -8 7 -4 5 4 -1 14 -11 22 -11 8 -14
14 -7 14 7 0 9 5 5 12 -4 7 -3 8 5 4 6 -4 9 -11 6 -16 -5 -9 33 -26 48 -22 5
1 6 -2 3 -7 -6 -9 1 -17 38 -48 21 -18 31 -16 16 2 -7 9 -10 18 -7 22 4 3 9
-2 13 -11 3 -9 11 -13 16 -10 6 4 5 -3 -1 -15 -7 -11 -10 -21 -9 -22 24 -6 37
-5 32 2 -3 5 -10 6 -16 3 -6 -4 -8 -2 -5 4 4 5 16 8 27 5 11 -3 18 -9 15 -13
-3 -4 5 -10 16 -13 17 -5 20 -12 17 -31 -3 -14 -1 -23 3 -20 5 3 9 12 9 19 0
17 19 3 73 -50 17 -16 27 -23 22 -15 -4 8 1 6 12 -5 11 -11 18 -24 15 -29 -3
-5 2 -7 10 -3 21 7 31 -3 18 -18 -8 -9 -4 -11 16 -7 16 3 24 1 21 -4 -3 -6 7
-15 22 -22 15 -7 36 -20 47 -30 10 -9 43 -35 72 -57 28 -21 52 -46 53 -55 0
-9 2 -10 5 -3 4 8 11 7 24 -4 10 -9 17 -20 14 -25 -3 -4 2 -5 10 -2 9 3 31
-11 58 -38 23 -24 38 -36 33 -28 -6 9 -2 7 8 -3 9 -11 17 -15 17 -11 1 5 9 -1
19 -13 10 -12 21 -19 25 -16 3 4 6 1 6 -6 0 -8 5 -9 19 -1 26 13 34 13 25 -2
-4 -7 -3 -8 4 -4 7 4 12 13 12 20 0 7 20 27 45 45 25 18 45 29 45 26 0 -3 10
5 23 18 34 36 86 69 97 62 6 -3 7 0 4 9 -4 11 0 14 14 11 11 -2 19 2 18 8 0 7
2 12 6 12 4 0 13 9 21 19 8 10 19 16 25 12 6 -3 13 -2 17 4 4 6 10 8 14 6 4
-3 8 1 8 9 0 12 -4 12 -21 -2 -21 -18 -21 -18 -2 5 11 12 25 22 33 22 7 0 16
7 19 15 6 13 64 55 77 55 4 0 4 -8 1 -17 -5 -14 -4 -15 4 -4 6 8 8 19 6 26 -3
6 3 18 12 26 16 12 17 12 10 -1 -4 -8 0 -6 9 5 9 11 19 20 23 20 4 0 6 3 5 7
-2 5 0 7 5 6 4 -1 22 6 40 15 17 10 32 14 32 10 0 -5 5 -1 11 7 8 12 10 12 7
1 -2 -8 -12 -15 -22 -17 -23 -3 -66 -32 -66 -44 0 -6 9 -1 20 10 12 12 25 18
30 15 6 -4 10 -1 10 5 0 6 4 9 9 5 5 -3 12 -1 16 4 3 6 12 8 20 4 10 -3 15 1
15 13 0 16 -2 17 -11 4 -9 -13 -10 -13 -6 0 2 8 10 14 16 13 6 -2 11 3 11 10
1 6 7 1 15 -13 8 -14 14 -19 15 -10 0 11 3 11 12 2 15 -15 28 -15 28 -1 0 5
-4 7 -10 4 -5 -3 -10 -1 -10 5 0 7 -6 10 -13 7 -8 -3 -14 1 -14 9 0 7 5 10 10
7 6 -3 17 3 25 13 12 16 14 16 9 2 -3 -10 -2 -20 3 -23 6 -4 10 2 10 11 0 10
3 14 7 11 3 -4 17 0 30 9 22 14 27 14 49 -1 13 -8 23 -12 22 -8 -3 13 24 63
32 58 4 -3 13 2 20 10 14 17 30 20 30 4 0 -5 -4 -8 -9 -4 -5 3 -12 1 -15 -4
-3 -5 3 -11 14 -14 13 -3 18 -1 13 6 -4 6 0 8 10 4 10 -4 16 -2 14 6 -1 7 8
11 20 11 13 -1 20 2 18 6 -6 9 -25 8 -42 -3 -9 -6 -11 -3 -7 8 4 9 12 14 19
11 7 -2 18 1 25 7 10 9 11 9 6 0 -4 -7 -2 -13 3 -13 10 0 16 22 12 44 -1 5 4
4 12 -2 11 -10 17 -9 26 1 6 8 9 17 6 20 -3 4 -2 5 2 2 3 -3 12 0 20 6 8 7 13
8 13 1 0 -5 -7 -13 -16 -16 -8 -3 -12 -11 -8 -17 5 -8 3 -9 -6 -4 -8 5 -11 4
-6 -3 4 -7 0 -10 -12 -7 -11 2 -19 -3 -19 -11 0 -10 4 -11 14 -3 7 6 13 8 13
4 0 -4 7 -2 15 5 8 7 12 16 9 21 -10 16 9 9 23 -8 13 -16 13 -16 4 3 -8 17 -6
26 9 44 16 19 20 20 20 7 0 -10 -4 -17 -10 -17 -5 0 -10 -5 -10 -11 0 -8 5 -8
15 1 8 7 15 21 15 32 0 10 4 17 9 13 6 -3 14 2 19 11 8 15 11 14 26 -7 9 -13
16 -19 16 -13 0 5 -5 15 -12 22 -16 16 17 53 40 45 11 -5 13 -3 7 8 -8 12 -6
12 8 0 15 -12 17 -12 12 2 -4 8 -2 18 4 21 12 8 -17 46 -34 46 -5 0 -3 -5 5
-10 8 -5 10 -10 4 -10 -6 0 -14 3 -18 8 -4 4 -11 7 -14 7 -4 1 -17 6 -28 13
-12 6 -25 8 -29 4 -5 -4 -5 -1 -1 6 5 7 11 11 14 8 3 -3 12 0 20 7 13 10 15 9
9 -5 -3 -10 -2 -20 2 -22 5 -3 8 5 7 17 -1 13 -7 21 -15 19 -9 -2 -11 3 -7 15
6 14 2 13 -14 -4 -26 -28 -41 -29 -37 -3 5 30 39 63 49 48 6 -10 8 -9 8 2 0 8
14 26 31 40 16 14 43 38 60 53 16 16 36 27 44 23 8 -3 12 0 9 7 -5 15 62 81
75 73 5 -4 13 -1 17 5 4 8 3 9 -4 5 -31 -19 -5 15 53 72 36 34 65 66 65 71 0
5 17 24 38 42 20 17 30 28 22 24 -8 -3 -3 5 13 19 15 14 27 29 27 33 0 5 6 15
13 23 7 9 16 23 20 32 4 11 14 16 26 13 11 -2 23 0 26 5 3 5 -4 7 -15 5 -29
-5 -25 14 5 25 14 5 25 12 25 14 0 3 -7 3 -15 0 -20 -8 -19 -2 5 26 11 13 20
29 20 37 0 7 8 13 18 14 9 0 12 3 5 5 -9 4 -6 18 10 52 12 26 25 48 29 50 4 2
4 10 1 18 -3 8 -2 14 3 13 20 -3 28 2 15 10 -8 6 -10 14 -5 22 9 14 14 34 16
57 1 7 8 10 16 7 11 -4 12 -2 5 7 -16 23 -1 64 19 52 7 -4 8 -2 4 5 -4 6 -12
8 -18 5 -7 -4 -7 2 -2 17 4 13 7 32 6 42 0 11 4 15 11 10 8 -4 8 -1 -1 9 -7 9
-9 18 -5 21 5 3 8 21 7 41 -1 21 3 36 10 36 7 0 8 3 1 8 -13 9 -16 112 -3 112
5 0 6 -5 2 -12 -5 -7 -3 -8 6 -3 10 6 10 10 -2 19 -11 8 -14 31 -13 91 0 44
-2 92 -6 106 -4 16 -2 32 4 39 8 9 9 11 1 7 -7 -4 -15 12 -21 44 -9 44 -8 49
6 45 11 -4 9 -1 -4 9 -11 9 -20 19 -21 23 0 4 -6 20 -13 36 -6 16 -13 36 -14
45 -2 9 -9 26 -15 39 -7 12 -10 27 -7 32 3 6 0 10 -7 10 -9 0 -9 3 2 10 13 8
12 10 -4 10 -13 0 -17 5 -13 20 3 11 1 20 -4 20 -5 0 -19 21 -30 48 -11 26
-26 59 -33 74 -10 20 -11 29 -2 38 8 8 7 10 -4 5 -11 -4 -20 5 -30 32 -8 21
-17 42 -19 47 -2 5 1 6 8 2 6 -4 11 -2 11 3 0 6 -6 11 -14 11 -8 0 -17 7 -20
16 -4 10 -2 13 7 9 6 -4 5 -1 -3 7 -19 17 -42 67 -35 78 3 5 0 10 -6 12 -7 2
-13 13 -14 24 -1 10 -6 28 -12 39 -12 23 -6 48 9 39 7 -4 8 -2 4 5 -4 6 -12 9
-17 6 -12 -8 -31 43 -24 66 4 12 1 19 -7 19 -10 0 -9 3 2 10 11 7 12 10 2 10
-8 0 -12 6 -9 13 2 6 11 10 18 9 8 -2 10 0 6 5 -5 4 -14 8 -20 8 -7 0 -13 16
-13 35 -1 19 -2 37 -4 40 -8 21 -7 47 3 59 9 12 9 13 0 7 -7 -4 -13 -2 -13 3
0 6 4 11 8 11 5 0 8 18 7 40 -1 22 2 40 6 40 4 0 7 6 6 13 -1 39 4 67 14 67 5
0 7 -4 4 -10 -10 -16 1 -11 16 7 8 10 9 14 2 10 -16 -10 -28 12 -14 26 8 8 11
7 11 -3 0 -7 3 -10 6 -7 4 4 1 14 -7 23 -13 16 -12 17 11 12 21 -5 22 -5 8 5
-15 10 -15 13 2 36 18 26 20 32 20 52 0 5 5 7 12 3 8 -5 9 -2 5 9 -4 10 -1 17
5 17 6 0 8 3 5 7 -8 7 29 71 55 94 10 9 15 19 11 23 -3 3 -1 6 5 6 5 0 13 -6
16 -12 3 -7 3 -2 0 12 -4 19 5 36 40 73 25 26 45 50 46 52 2 15 75 83 83 78 6
-3 7 -1 4 4 -7 11 30 50 42 46 3 -2 6 0 6 5 0 4 4 13 9 20 4 7 6 15 4 18 -3 2
-46 5 -96 6 -63 1 -89 4 -85 12 4 6 -1 5 -10 -3 -9 -7 -18 -11 -18 -7 -1 3 -2
10 -3 15 0 5 -4 13 -8 17 -4 3 -6 -3 -3 -14 3 -18 -1 -20 -46 -19 -27 0 -49 4
-49 8 0 4 -16 5 -36 2 -30 -4 -36 -2 -31 10 4 11 1 14 -8 10 -8 -3 -12 -10 -9
-17 3 -6 -2 -2 -10 8 -9 11 -16 14 -16 7 0 -8 -10 -10 -32 -6 -18 4 -41 6 -50
6 -10 0 -18 5 -18 10 0 6 -4 8 -9 5 -12 -8 -72 4 -67 13 3 4 -8 7 -22 6 -22 0
-26 4 -24 20 l4 20 -17 -20 c-12 -14 -15 -15 -12 -4 3 9 -1 16 -9 16 -7 0 -11
-4 -9 -8 3 -4 -17 4 -45 17 -27 13 -50 29 -50 35 0 5 -4 8 -9 5 -4 -3 -30 18
-57 47 -74 80 -91 102 -74 92 8 -4 6 2 -5 13 -39 41 -46 52 -39 64 5 7 3 8 -6
3 -10 -6 -12 -4 -7 8 3 9 1 19 -5 23 -7 4 -8 3 -4 -4 4 -7 5 -12 2 -12 -11 0
-33 55 -28 69 2 8 0 11 -5 8 -11 -7 -68 109 -64 131 1 6 -2 12 -7 12 -12 0
-34 68 -26 81 4 8 3 9 -4 5 -7 -4 -12 -1 -12 8 0 22 -17 20 -30 -4 -6 -11 -15
-18 -20 -15 -6 4 -7 -1 -3 -11 5 -13 3 -16 -10 -11 -9 3 -19 1 -23 -5 -4 -7
-3 -8 4 -4 19 11 14 -20 -5 -35 -10 -8 -14 -9 -10 -2 4 6 3 14 -2 18 -6 3 -8
-4 -5 -17 3 -17 -5 -31 -27 -50 -18 -16 -28 -28 -24 -28 4 0 -14 -21 -40 -46
-28 -27 -53 -43 -62 -40 -8 3 -11 2 -8 -4 9 -15 -47 -61 -61 -49 -9 7 -11 5
-10 -8 0 -10 -5 -17 -11 -16 -7 2 -13 -1 -13 -6 0 -13 -76 -51 -85 -43 -4 4
-12 0 -18 -9 -12 -16 -55 -35 -69 -31 -5 1 -8 -3 -8 -8 0 -6 -5 -10 -11 -10
-5 0 -8 4 -4 9 3 5 1 13 -5 16 -6 4 -10 3 -9 -2 4 -21 -3 -31 -21 -36 -11 -3
-20 -1 -20 5 0 5 -7 2 -16 -6 -8 -9 -25 -16 -37 -17 -12 0 -31 -2 -42 -4 -10
-2 -26 2 -34 8 -10 8 -13 8 -8 1 10 -17 -34 -26 -52 -11 -12 10 -13 9 -7 -2 7
-11 -6 -12 -75 -7 -110 8 -109 8 -109 20 0 6 -4 5 -8 -2 -6 -9 -16 -10 -34 -3
-14 5 -29 7 -32 4 -3 -4 -7 -1 -7 5 -3 26 -4 31 -11 38 -4 3 -6 -3 -3 -15 2
-11 0 -21 -6 -21 -5 0 -9 5 -9 11 0 5 -4 8 -10 4 -5 -3 -21 -3 -35 1 -19 5
-23 9 -15 19 8 10 8 15 -1 21 -7 4 -9 3 -6 -3 4 -6 0 -13 -8 -17 -15 -5 -19 4
-16 34 2 13 1 13 -8 0 -5 -8 -7 -18 -5 -22 3 -4 0 -8 -5 -8 -6 0 -11 5 -11 10
0 6 -3 9 -7 9 -15 -3 -93 34 -93 43 0 5 -5 6 -12 2 -7 -5 -9 -2 -5 8 4 11 1
14 -11 12 -9 -3 -29 6 -43 19 -14 13 -35 30 -47 36 -13 7 -19 17 -16 23 4 6 3
8 -2 5 -9 -5 -34 17 -123 107 -20 21 -31 41 -28 50 4 10 1 13 -7 10 -8 -3 -17
0 -22 7 -4 7 -3 10 4 5 6 -3 14 -1 18 6 4 7 4 10 -1 6 -11 -10 -47 11 -40 23
4 5 2 9 -4 9 -5 0 -13 9 -16 20 -3 11 -11 20 -17 20 -5 0 -12 -9 -15 -20z
m-200 -4279 c21 -26 22 -38 2 -21 -8 7 -15 9 -15 4 0 -5 -8 3 -18 19 -10 15
-22 24 -27 20 -4 -5 -5 -2 -1 5 9 15 33 4 59 -27z m97 -72 c0 -5 5 -7 12 -3 7
4 8 3 4 -5 -6 -9 -11 -9 -22 0 -17 14 -18 19 -4 19 6 0 10 -5 10 -11z m210
-129 c0 -5 -2 -10 -4 -10 -3 0 -8 5 -11 10 -3 6 -1 10 4 10 6 0 11 -4 11 -10z
m1630 -26 c0 -8 -19 -13 -24 -6 -3 5 1 9 9 9 8 0 15 -2 15 -3z"/>
<path d="M1834 4966 c1 -8 5 -18 8 -22 4 -3 5 1 4 10 -1 8 -5 18 -8 22 -4 3
-5 -1 -4 -10z"/>
<path d="M1626 4942 c-3 -5 1 -9 9 -9 8 0 15 4 15 9 0 4 -4 8 -9 8 -6 0 -12
-4 -15 -8z"/>
<path d="M3256 4938 c3 -4 11 -5 19 -1 21 7 19 12 -4 10 -11 0 -18 -5 -15 -9z"/>
<path d="M3510 4870 c6 -11 13 -20 16 -20 2 0 0 9 -6 20 -6 11 -13 20 -16 20
-2 0 0 -9 6 -20z"/>
<path d="M1930 4860 c-9 -6 -10 -10 -3 -10 6 0 15 5 18 10 8 12 4 12 -15 0z"/>
<path d="M3150 4856 c0 -2 8 -10 18 -17 15 -13 16 -12 3 4 -13 16 -21 21 -21
13z"/>
<path d="M3120 4790 c-6 -11 -8 -20 -6 -20 3 0 10 9 16 20 6 11 8 20 6 20 -3
0 -10 -9 -16 -20z"/>
<path d="M2052 4761 c-11 -7 -11 -9 0 -14 9 -3 15 1 15 9 0 8 -1 14 -1 14 -1
0 -7 -4 -14 -9z"/>
<path d="M3055 4760 c-3 -5 -1 -10 4 -10 6 0 11 5 11 10 0 6 -2 10 -4 10 -3 0
-8 -4 -11 -10z"/>
<path d="M2170 4701 c0 -6 4 -13 10 -16 6 -3 7 1 4 9 -7 18 -14 21 -14 7z"/>
<path d="M3628 4692 c9 -10 19 -17 21 -16 6 5 -20 34 -30 34 -5 0 -1 -8 9 -18z"/>
<path d="M1469 4643 c-13 -17 -13 -17 6 -3 11 8 22 16 24 17 2 2 0 3 -6 3 -6
0 -17 -8 -24 -17z"/>
<path d="M2290 4640 c-9 -6 -10 -10 -3 -10 6 0 15 5 18 10 8 12 4 12 -15 0z"/>
<path d="M3650 4641 c0 -6 4 -13 10 -16 6 -3 7 1 4 9 -7 18 -14 21 -14 7z"/>
<path d="M2510 4623 c0 -6 7 -16 15 -23 13 -11 18 -11 28 0 10 10 9 11 -2 5
-9 -5 -19 -1 -28 10 -7 11 -13 14 -13 8z"/>
<path d="M2696 4617 c3 -10 9 -15 12 -12 3 3 0 11 -7 18 -10 9 -11 8 -5 -6z"/>
<path d="M2770 4620 c-9 -6 -10 -10 -3 -10 6 0 15 5 18 10 8 12 4 12 -15 0z"/>
<path d="M2380 4616 c0 -2 7 -7 16 -10 8 -3 12 -2 9 4 -6 10 -25 14 -25 6z"/>
<path d="M2466 4598 c3 -5 10 -6 15 -3 13 9 11 12 -6 12 -8 0 -12 -4 -9 -9z"/>
<path d="M3730 4559 c0 -5 5 -7 10 -4 6 3 10 8 10 11 0 2 -4 4 -10 4 -5 0 -10
-5 -10 -11z"/>
<path d="M1336 4547 c3 -10 9 -15 12 -12 3 3 0 11 -7 18 -10 9 -11 8 -5 -6z"/>
<path d="M3746 4542 c-3 -5 1 -9 9 -9 8 0 12 4 9 9 -3 4 -7 8 -9 8 -2 0 -6 -4
-9 -8z"/>
<path d="M3817 4489 c7 -7 15 -10 18 -7 3 3 -2 9 -12 12 -14 6 -15 5 -6 -5z"/>
<path d="M3996 4442 c-3 -5 1 -9 9 -9 8 0 12 4 9 9 -3 4 -7 8 -9 8 -2 0 -6 -4
-9 -8z"/>
<path d="M4050 4426 c0 -2 7 -7 16 -10 8 -3 12 -2 9 4 -6 10 -25 14 -25 6z"/>
<path d="M909 4403 c-13 -16 -12 -17 4 -4 9 7 17 15 17 17 0 8 -8 3 -21 -13z"/>
<path d="M935 4400 c-3 -5 -1 -10 4 -10 6 0 11 5 11 10 0 6 -2 10 -4 10 -3 0
-8 -4 -11 -10z"/>
<path d="M4275 4401 c-3 -5 -2 -12 3 -15 5 -3 9 1 9 9 0 17 -3 19 -12 6z"/>
<path d="M4425 4399 c-3 -4 2 -6 10 -5 21 3 28 13 10 13 -9 0 -18 -4 -20 -8z"/>
<path d="M615 4280 c-3 -5 -1 -10 4 -10 6 0 11 5 11 10 0 6 -2 10 -4 10 -3 0
-8 -4 -11 -10z"/>
<path d="M4510 4281 c0 -6 4 -13 10 -16 6 -3 7 1 4 9 -7 18 -14 21 -14 7z"/>
<path d="M703 4202 c10 -10 14 -22 10 -27 -5 -4 -2 -5 5 -1 11 6 10 12 -4 27
-9 10 -19 19 -22 19 -3 0 2 -8 11 -18z"/>
<path d="M4435 4200 c-3 -5 -1 -10 4 -10 6 0 11 5 11 10 0 6 -2 10 -4 10 -3 0
-8 -4 -11 -10z"/>
<path d="M4348 4103 c7 -3 16 -2 19 1 4 3 -2 6 -13 5 -11 0 -14 -3 -6 -6z"/>
<path d="M795 4070 c3 -5 8 -10 11 -10 2 0 4 5 4 10 0 6 -5 10 -11 10 -5 0 -7
-4 -4 -10z"/>
<path d="M874 3952 c0 -10 6 -19 13 -19 8 0 9 6 2 19 -5 10 -11 18 -12 18 -2
0 -3 -8 -3 -18z"/>
<path d="M977 3687 c-3 -8 1 -14 8 -14 7 0 11 6 8 14 -3 7 -6 13 -8 13 -2 0
-5 -6 -8 -13z"/>
<path d="M4126 3558 c3 -5 10 -6 15 -3 13 9 11 12 -6 12 -8 0 -12 -4 -9 -9z"/>
<path d="M976 3487 c3 -10 9 -15 12 -12 3 3 0 11 -7 18 -10 9 -11 8 -5 -6z"/>
<path d="M4136 3473 c-6 -14 -5 -15 5 -6 7 7 10 15 7 18 -3 3 -9 -2 -12 -12z"/>
<path d="M981 3453 c-1 -6 -4 -20 -7 -30 -5 -17 -5 -17 6 0 6 10 9 23 6 30 -3
9 -5 9 -5 0z"/>
<path d="M956 3333 c-6 -14 -5 -15 5 -6 7 7 10 15 7 18 -3 3 -9 -2 -12 -12z"/>
<path d="M4275 3039 c-4 -6 -5 -12 -2 -15 2 -3 7 2 10 11 7 17 1 20 -8 4z"/>
<path d="M4285 3000 c3 -5 8 -10 11 -10 2 0 4 5 4 10 0 6 -5 10 -11 10 -5 0
-7 -4 -4 -10z"/>
<path d="M4430 2660 c0 -5 5 -10 11 -10 5 0 7 5 4 10 -3 6 -8 10 -11 10 -2 0
-4 -4 -4 -10z"/>
<path d="M4496 2273 c-6 -14 -5 -15 5 -6 7 7 10 15 7 18 -3 3 -9 -2 -12 -12z"/>
<path d="M4490 2060 c0 -5 5 -10 11 -10 5 0 7 5 4 10 -3 6 -8 10 -11 10 -2 0
-4 -4 -4 -10z"/>
<path d="M4390 1668 c-10 -21 -10 -21 3 -6 8 10 18 14 22 10 5 -4 5 -1 1 6
-10 17 -14 15 -26 -10z"/>
<path d="M786 1560 c5 -8 9 -18 9 -22 0 -3 3 -9 7 -13 3 -4 5 0 4 9 -1 9 -8
22 -16 29 -10 10 -11 9 -4 -3z"/>
<path d="M4295 1460 c3 -5 8 -10 11 -10 2 0 4 5 4 10 0 6 -5 10 -11 10 -5 0
-7 -4 -4 -10z"/>
<path d="M860 1425 c0 -2 6 -8 13 -14 10 -8 14 -7 14 2 0 8 -6 14 -14 14 -7 0
-13 -1 -13 -2z"/>
<path d="M4250 1419 c0 -5 5 -7 10 -4 6 3 10 8 10 11 0 2 -4 4 -10 4 -5 0 -10
-5 -10 -11z"/>
<path d="M4226 1378 c3 -5 10 -6 15 -3 13 9 11 12 -6 12 -8 0 -12 -4 -9 -9z"/>
<path d="M4161 1317 c-13 -21 -12 -21 5 -5 10 10 16 20 13 22 -3 3 -11 -5 -18
-17z"/>
<path d="M951 1327 c2 -1 13 -9 24 -17 19 -14 19 -14 6 3 -7 9 -18 17 -24 17
-6 0 -8 -1 -6 -3z"/>
<path d="M976 1282 c-3 -5 1 -9 9 -9 8 0 12 4 9 9 -3 4 -7 8 -9 8 -2 0 -6 -4
-9 -8z"/>
<path d="M4150 1282 c0 -5 7 -9 15 -9 8 0 12 4 9 9 -3 4 -9 8 -15 8 -5 0 -9
-4 -9 -8z"/>
<path d="M1013 1255 c0 -8 4 -12 9 -9 5 3 6 10 3 15 -9 13 -12 11 -12 -6z"/>
<path d="M4030 1186 c0 -2 9 -6 20 -9 11 -3 18 -1 14 4 -5 9 -34 13 -34 5z"/>
<path d="M1106 1162 c-3 -5 1 -9 9 -9 8 0 12 4 9 9 -3 4 -7 8 -9 8 -2 0 -6 -4
-9 -8z"/>
<path d="M3993 1125 c0 -8 4 -12 9 -9 5 3 6 10 3 15 -9 13 -12 11 -12 -6z"/>
<path d="M1134 1118 c-4 -7 -4 -10 1 -6 13 12 34 -11 28 -30 -4 -13 -3 -14 5
-3 8 11 10 11 14 0 3 -8 8 -11 12 -8 3 3 -7 18 -23 33 -22 21 -31 25 -37 14z"/>
<path d="M1190 1036 c0 -2 7 -9 15 -16 13 -11 14 -10 9 4 -5 14 -24 23 -24 12z"/>
<path d="M1230 999 c0 -5 5 -7 10 -4 6 3 10 8 10 11 0 2 -4 4 -10 4 -5 0 -10
-5 -10 -11z"/>
<path d="M3826 978 c3 -5 10 -6 15 -3 13 9 11 12 -6 12 -8 0 -12 -4 -9 -9z"/>
<path d="M3754 938 c-12 -19 -14 -39 -3 -32 5 3 7 9 4 14 -3 4 1 10 7 13 7 2
10 7 7 11 -4 4 -11 1 -15 -6z"/>
<path d="M3873 855 c0 -8 4 -12 9 -9 5 3 6 10 3 15 -9 13 -12 11 -12 -6z"/>
<path d="M3876 798 c3 -5 10 -6 15 -3 13 9 11 12 -6 12 -8 0 -12 -4 -9 -9z"/>
<path d="M3811 766 c-10 -12 -8 -17 11 -26 22 -11 22 -10 4 4 -18 15 -15 21 7
17 5 -1 6 3 2 9 -8 13 -10 13 -24 -4z"/>
<path d="M3771 714 c0 -11 3 -14 6 -6 3 7 2 16 -1 19 -3 4 -6 -2 -5 -13z"/>
<path d="M3616 598 c3 -5 10 -6 15 -3 13 9 11 12 -6 12 -8 0 -12 -4 -9 -9z"/>
<path d="M1766 563 c-6 -14 -5 -15 5 -6 7 7 10 15 7 18 -3 3 -9 -2 -12 -12z"/>
<path d="M3379 523 c-10 -11 -10 -14 -1 -9 6 4 12 2 12 -3 0 -6 5 -11 11 -11
8 0 8 5 -1 15 -15 18 0 20 20 3 12 -11 12 -10 1 5 -17 21 -25 21 -42 0z"/>
<path d="M1916 483 c-6 -14 -5 -15 5 -6 7 7 10 15 7 18 -3 3 -9 -2 -12 -12z"/>
<path d="M1970 456 c0 -2 8 -10 18 -17 15 -13 16 -12 3 4 -13 16 -21 21 -21
13z"/>
<path d="M3160 420 c-9 -6 -10 -10 -3 -10 6 0 15 5 18 10 8 12 4 12 -15 0z"/>
<path d="M3077 389 c7 -7 15 -10 18 -7 3 3 -2 9 -12 12 -14 6 -15 5 -6 -5z"/>
<path d="M2150 305 c0 -5 5 -17 10 -25 5 -8 10 -10 10 -5 0 6 -5 17 -10 25 -5
8 -10 11 -10 5z"/>
<path d="M2190 266 c0 -2 7 -7 16 -10 8 -3 12 -2 9 4 -6 10 -25 14 -25 6z"/>
<path d="M2230 256 c0 -2 8 -10 18 -17 15 -13 16 -12 3 4 -13 16 -21 21 -21
13z"/>
<path d="M2270 221 c0 -6 4 -13 10 -16 6 -3 7 1 4 9 -7 18 -14 21 -14 7z"/>
<path d="M2388 123 c7 -3 16 -2 19 1 4 3 -2 6 -13 5 -11 0 -14 -3 -6 -6z"/>
<path d="M2416 103 c-6 -14 -5 -15 5 -6 7 7 10 15 7 18 -3 3 -9 -2 -12 -12z"/>
<path d="M2655 81 c-3 -5 -2 -12 3 -15 5 -3 9 1 9 9 0 17 -3 19 -12 6z"/>
<path d="M2495 40 c-3 -6 1 -7 9 -4 18 7 21 14 7 14 -6 0 -13 -4 -16 -10z"/>
</g>
</svg>
